<?xml version="1.0" encoding="UTF-8" standalone="no"?><svg xmlns="http://www.w3.org/2000/svg" xmlns:xlink="http://www.w3.org/1999/xlink" contentScriptType="application/ecmascript" contentStyleType="text/css" height="539px" preserveAspectRatio="none" style="width:477px;height:539px;" version="1.1" viewBox="0 0 477 539" width="477px" zoomAndPan="magnify"><defs><filter height="300%" id="f1i7d3gijb1p94" width="300%" x="-1" y="-1"><feGaussianBlur result="blurOut" stdDeviation="2.0"/><feColorMatrix in="blurOut" result="blurOut2" type="matrix" values="0 0 0 0 0 0 0 0 0 0 0 0 0 0 0 0 0 0 .4 0"/><feOffset dx="4.0" dy="4.0" in="blurOut2" result="blurOut3"/><feBlend in="SourceGraphic" in2="blurOut3" mode="normal"/></filter></defs><g><text fill="#000000" font-family="sans-serif" font-size="14" font-weight="bold" lengthAdjust="spacingAndGlyphs" textLength="210" x="133.5" y="22.9951">NSM Local Xconnect Setup</text><line style="stroke: #A80036; stroke-width: 1.0; stroke-dasharray: 5.0,5.0;" x1="29" x2="29" y1="68.5938" y2="527.5859"/><line style="stroke: #A80036; stroke-width: 1.0; stroke-dasharray: 5.0,5.0;" x1="169.5" x2="169.5" y1="68.5938" y2="527.5859"/><line style="stroke: #A80036; stroke-width: 1.0; stroke-dasharray: 5.0,5.0;" x1="309" x2="309" y1="68.5938" y2="527.5859"/><line style="stroke: #A80036; stroke-width: 1.0; stroke-dasharray: 5.0,5.0;" x1="441.5" x2="441.5" y1="68.5938" y2="527.5859"/><rect fill="#FEFECE" filter="url(#f1i7d3gijb1p94)" height="30.2969" style="stroke: #A80036; stroke-width: 1.5;" width="39" x="8" y="33.2969"/><text fill="#000000" font-family="sans-serif" font-size="14" lengthAdjust="spacingAndGlyphs" textLength="25" x="15" y="53.292">nsc</text><rect fill="#FEFECE" filter="url(#f1i7d3gijb1p94)" height="30.2969" style="stroke: #A80036; stroke-width: 1.5;" width="58" x="138.5" y="33.2969"/><text fill="#000000" font-family="sans-serif" font-size="14" lengthAdjust="spacingAndGlyphs" textLength="44" x="145.5" y="53.292">nsmgr</text><rect fill="#FEFECE" filter="url(#f1i7d3gijb1p94)" height="30.2969" style="stroke: #A80036; stroke-width: 1.5;" width="79" x="268" y="33.2969"/><text fill="#000000" font-family="sans-serif" font-size="14" lengthAdjust="spacingAndGlyphs" textLength="65" x="275" y="53.292">forwarder</text><rect fill="#FEFECE" filter="url(#f1i7d3gijb1p94)" height="30.2969" style="stroke: #A80036; stroke-width: 1.5;" width="40" x="419.5" y="33.2969"/><text fill="#000000" font-family="sans-serif" font-size="14" lengthAdjust="spacingAndGlyphs" textLength="26" x="426.5" y="53.292">nse</text><polygon fill="#A80036" points="157.5,95.7266,167.5,99.7266,157.5,103.7266,161.5,99.7266" style="stroke: #A80036; stroke-width: 1.0;"/><line style="stroke: #A80036; stroke-width: 1.0;" x1="29.5" x2="163.5" y1="99.7266" y2="99.7266"/><text fill="#000000" font-family="sans-serif" font-size="13" font-weight="bold" lengthAdjust="spacingAndGlyphs" textLength="9" x="36.5" y="94.6606">1</text><text fill="#000000" font-family="sans-serif" font-size="13" lengthAdjust="spacingAndGlyphs" textLength="103" x="49.5" y="94.6606">Service.Request</text><polygon fill="#A80036" points="297.5,124.8594,307.5,128.8594,297.5,132.8594,301.5,128.8594" style="stroke: #A80036; stroke-width: 1.0;"/><line style="stroke: #A80036; stroke-width: 1.0;" x1="169.5" x2="303.5" y1="128.8594" y2="128.8594"/><text fill="#000000" font-family="sans-serif" font-size="13" font-weight="bold" lengthAdjust="spacingAndGlyphs" textLength="9" x="176.5" y="123.7935">2</text><text fill="#000000" font-family="sans-serif" font-size="13" lengthAdjust="spacingAndGlyphs" textLength="103" x="189.5" y="123.7935">Service.Request</text><path d="M259,141.8594 L259,181.8594 L355,181.8594 L355,151.8594 L345,141.8594 L259,141.8594 " fill="#FBFB77" filter="url(#f1i7d3gijb1p94)" style="stroke: #A80036; stroke-width: 1.0;"/><path d="M345,141.8594 L345,151.8594 L355,151.8594 L345,141.8594 " fill="#FBFB77" style="stroke: #A80036; stroke-width: 1.0;"/><text fill="#000000" font-family="sans-serif" font-size="13" lengthAdjust="spacingAndGlyphs" textLength="42" x="265" y="158.9263">callout</text><text fill="#000000" font-family="sans-serif" font-size="13" lengthAdjust="spacingAndGlyphs" textLength="75" x="265" y="174.0591">mechanism</text><polygon fill="#A80036" points="180.5,208.2578,170.5,212.2578,180.5,216.2578,176.5,212.2578" style="stroke: #A80036; stroke-width: 1.0;"/><line style="stroke: #A80036; stroke-width: 1.0;" x1="174.5" x2="308.5" y1="212.2578" y2="212.2578"/><text fill="#000000" font-family="sans-serif" font-size="13" font-weight="bold" lengthAdjust="spacingAndGlyphs" textLength="9" x="186.5" y="207.1919">3</text><text fill="#000000" font-family="sans-serif" font-size="13" lengthAdjust="spacingAndGlyphs" textLength="103" x="199.5" y="207.1919">Service.Request</text><polygon fill="#A80036" points="429.5,237.3906,439.5,241.3906,429.5,245.3906,433.5,241.3906" style="stroke: #A80036; stroke-width: 1.0;"/><line style="stroke: #A80036; stroke-width: 1.0;" x1="169.5" x2="435.5" y1="241.3906" y2="241.3906"/><text fill="#000000" font-family="sans-serif" font-size="13" font-weight="bold" lengthAdjust="spacingAndGlyphs" textLength="9" x="176.5" y="236.3247">4</text><text fill="#000000" font-family="sans-serif" font-size="13" lengthAdjust="spacingAndGlyphs" textLength="103" x="189.5" y="236.3247">Service.Request</text><path d="M413,254.3906 L413,279.3906 L465,279.3906 L465,264.3906 L455,254.3906 L413,254.3906 " fill="#FBFB77" filter="url(#f1i7d3gijb1p94)" style="stroke: #A80036; stroke-width: 1.0;"/><path d="M455,254.3906 L455,264.3906 L465,264.3906 L455,254.3906 " fill="#FBFB77" style="stroke: #A80036; stroke-width: 1.0;"/><text fill="#000000" font-family="sans-serif" font-size="13" lengthAdjust="spacingAndGlyphs" textLength="31" x="419" y="271.4575">IPAM</text><polygon fill="#A80036" points="180.5,305.6563,170.5,309.6563,180.5,313.6563,176.5,309.6563" style="stroke: #A80036; stroke-width: 1.0;"/><line style="stroke: #A80036; stroke-width: 1.0;" x1="174.5" x2="440.5" y1="309.6563" y2="309.6563"/><text fill="#000000" font-family="sans-serif" font-size="13" font-weight="bold" lengthAdjust="spacingAndGlyphs" textLength="9" x="186.5" y="304.5903">5</text><text fill="#000000" font-family="sans-serif" font-size="13" lengthAdjust="spacingAndGlyphs" textLength="72" x="199.5" y="304.5903">Connection</text><polygon fill="#A80036" points="297.5,334.7891,307.5,338.7891,297.5,342.7891,301.5,338.7891" style="stroke: #A80036; stroke-width: 1.0;"/><line style="stroke: #A80036; stroke-width: 1.0;" x1="169.5" x2="303.5" y1="338.7891" y2="338.7891"/><text fill="#000000" font-family="sans-serif" font-size="13" font-weight="bold" lengthAdjust="spacingAndGlyphs" textLength="9" x="176.5" y="333.7231">6</text><text fill="#000000" font-family="sans-serif" font-size="13" lengthAdjust="spacingAndGlyphs" textLength="72" x="189.5" y="333.7231">Connection</text><path d="M272,351.7891 L272,391.7891 L342,391.7891 L342,361.7891 L332,351.7891 L272,351.7891 " fill="#FBFB77" filter="url(#f1i7d3gijb1p94)" style="stroke: #A80036; stroke-width: 1.0;"/><path d="M332,351.7891 L332,361.7891 L342,361.7891 L332,351.7891 " fill="#FBFB77" style="stroke: #A80036; stroke-width: 1.0;"/><text fill="#000000" font-family="sans-serif" font-size="13" lengthAdjust="spacingAndGlyphs" textLength="42" x="278" y="368.856">callout</text><text fill="#000000" font-family="sans-serif" font-size="13" lengthAdjust="spacingAndGlyphs" textLength="49" x="278" y="383.9888">request</text><polygon fill="#A80036" points="429.5,418.1875,439.5,422.1875,429.5,426.1875,433.5,422.1875" style="stroke: #A80036; stroke-width: 1.0;"/><line style="stroke: #A80036; stroke-width: 1.0; stroke-dasharray: 2.0,2.0;" x1="309.5" x2="435.5" y1="422.1875" y2="422.1875"/><text fill="#000000" font-family="sans-serif" font-size="13" font-weight="bold" lengthAdjust="spacingAndGlyphs" textLength="9" x="316.5" y="417.1216">7</text><text fill="#000000" font-family="sans-serif" font-size="13" lengthAdjust="spacingAndGlyphs" textLength="95" x="329.5" y="417.1216">Inject-interface</text><polygon fill="#A80036" points="40.5,447.3203,30.5,451.3203,40.5,455.3203,36.5,451.3203" style="stroke: #A80036; stroke-width: 1.0;"/><line style="stroke: #A80036; stroke-width: 1.0; stroke-dasharray: 2.0,2.0;" x1="34.5" x2="308.5" y1="451.3203" y2="451.3203"/><text fill="#000000" font-family="sans-serif" font-size="13" font-weight="bold" lengthAdjust="spacingAndGlyphs" textLength="9" x="46.5" y="446.2544">8</text><text fill="#000000" font-family="sans-serif" font-size="13" lengthAdjust="spacingAndGlyphs" textLength="95" x="59.5" y="446.2544">Inject-interface</text><polygon fill="#A80036" points="180.5,476.4531,170.5,480.4531,180.5,484.4531,176.5,480.4531" style="stroke: #A80036; stroke-width: 1.0;"/><line style="stroke: #A80036; stroke-width: 1.0;" x1="174.5" x2="308.5" y1="480.4531" y2="480.4531"/><text fill="#000000" font-family="sans-serif" font-size="13" font-weight="bold" lengthAdjust="spacingAndGlyphs" textLength="9" x="186.5" y="475.3872">9</text><text fill="#000000" font-family="sans-serif" font-size="13" lengthAdjust="spacingAndGlyphs" textLength="72" x="199.5" y="475.3872">Connection</text><polygon fill="#A80036" points="40.5,505.5859,30.5,509.5859,40.5,513.5859,36.5,509.5859" style="stroke: #A80036; stroke-width: 1.0;"/><line style="stroke: #A80036; stroke-width: 1.0;" x1="34.5" x2="168.5" y1="509.5859" y2="509.5859"/><text fill="#000000" font-family="sans-serif" font-size="13" font-weight="bold" lengthAdjust="spacingAndGlyphs" textLength="18" x="46.5" y="504.52">10</text><text fill="#000000" font-family="sans-serif" font-size="13" lengthAdjust="spacingAndGlyphs" textLength="72" x="68.5" y="504.52">Connection</text><!--
@startuml
autonumber
hide footbox
title NSM Local Xconnect Setup
participant nsc as NSC order 10
participant "nsmgr" as LN order 20
participant "forwarder" as LF order 30
participant nse as NSE order 40


NSC->LN: Service.Request
LN->LF: Service.Request
note over LF: callout\nmechanism
LF->LN: Service.Request
LN->NSE: Service.Request
note over NSE: IPAM
NSE->LN: Connection
LN->LF: Connection
note over LF: callout\nrequest
LF- ->NSE: Inject-interface
LF- ->NSC: Inject-interface
LF->LN: Connection
LN->NSC: Connection

@enduml

PlantUML version 1.2019.00(Sun Jan 13 16:46:42 CET 2019)
(GPL source distribution)
Java Runtime: OpenJDK Runtime Environment
JVM: OpenJDK 64-Bit Server VM
Java Version: 1.8.0_282-8u282-b08-0ubuntu1~18.04-b08
Operating System: Linux
OS Version: 5.4.0-65-generic
Default Encoding: UTF-8
Language: en
Country: US
--></g></svg>