<?xml version="1.0" encoding="UTF-8" standalone="no"?><svg xmlns="http://www.w3.org/2000/svg" xmlns:xlink="http://www.w3.org/1999/xlink" contentScriptType="application/ecmascript" contentStyleType="text/css" height="843px" preserveAspectRatio="none" style="width:721px;height:843px;" version="1.1" viewBox="0 0 721 843" width="721px" zoomAndPan="magnify"><defs><filter height="300%" id="fuv0nlcebfden" width="300%" x="-1" y="-1"><feGaussianBlur result="blurOut" stdDeviation="2.0"/><feColorMatrix in="blurOut" result="blurOut2" type="matrix" values="0 0 0 0 0 0 0 0 0 0 0 0 0 0 0 0 0 0 .4 0"/><feOffset dx="4.0" dy="4.0" in="blurOut2" result="blurOut3"/><feBlend in="SourceGraphic" in2="blurOut3" mode="normal"/></filter></defs><g><text fill="#000000" font-family="sans-serif" font-size="14" font-weight="bold" lengthAdjust="spacingAndGlyphs" textLength="229" x="246" y="22.9951">NSM Remote Xconnect Setup</text><rect fill="#ADD8E6" height="790.75" style="stroke: #A80036; stroke-width: 1.0;" width="351" x="4" y="34.2969"/><text fill="#000000" font-family="sans-serif" font-size="13" font-weight="bold" lengthAdjust="spacingAndGlyphs" textLength="51" x="154" y="46.3638">node 1</text><rect fill="#DDDDDD" height="790.75" style="stroke: #A80036; stroke-width: 1.0;" width="351.5" x="357" y="34.2969"/><text fill="#000000" font-family="sans-serif" font-size="13" font-weight="bold" lengthAdjust="spacingAndGlyphs" textLength="51" x="507.25" y="46.3638">node 2</text><line style="stroke: #A80036; stroke-width: 1.0; stroke-dasharray: 5.0,5.0;" x1="29" x2="29" y1="88.7266" y2="831.0469"/><line style="stroke: #A80036; stroke-width: 1.0; stroke-dasharray: 5.0,5.0;" x1="169.5" x2="169.5" y1="88.7266" y2="831.0469"/><line style="stroke: #A80036; stroke-width: 1.0; stroke-dasharray: 5.0,5.0;" x1="309" x2="309" y1="88.7266" y2="831.0469"/><line style="stroke: #A80036; stroke-width: 1.0; stroke-dasharray: 5.0,5.0;" x1="383" x2="383" y1="88.7266" y2="831.0469"/><line style="stroke: #A80036; stroke-width: 1.0; stroke-dasharray: 5.0,5.0;" x1="523" x2="523" y1="88.7266" y2="831.0469"/><line style="stroke: #A80036; stroke-width: 1.0; stroke-dasharray: 5.0,5.0;" x1="662.5" x2="662.5" y1="88.7266" y2="831.0469"/><rect fill="#FEFECE" filter="url(#fuv0nlcebfden)" height="30.2969" style="stroke: #A80036; stroke-width: 1.5;" width="39" x="8" y="53.4297"/><text fill="#000000" font-family="sans-serif" font-size="14" lengthAdjust="spacingAndGlyphs" textLength="25" x="15" y="73.4248">nsc</text><rect fill="#FEFECE" filter="url(#fuv0nlcebfden)" height="30.2969" style="stroke: #A80036; stroke-width: 1.5;" width="58" x="138.5" y="53.4297"/><text fill="#000000" font-family="sans-serif" font-size="14" lengthAdjust="spacingAndGlyphs" textLength="44" x="145.5" y="73.4248">nsmgr</text><rect fill="#FEFECE" filter="url(#fuv0nlcebfden)" height="30.2969" style="stroke: #A80036; stroke-width: 1.5;" width="79" x="268" y="53.4297"/><text fill="#000000" font-family="sans-serif" font-size="14" lengthAdjust="spacingAndGlyphs" textLength="65" x="275" y="73.4248">forwarder</text><rect fill="#FEFECE" filter="url(#fuv0nlcebfden)" height="30.2969" style="stroke: #A80036; stroke-width: 1.5;" width="40" x="361" y="53.4297"/><text fill="#000000" font-family="sans-serif" font-size="14" lengthAdjust="spacingAndGlyphs" textLength="26" x="368" y="73.4248">nse</text><rect fill="#FEFECE" filter="url(#fuv0nlcebfden)" height="30.2969" style="stroke: #A80036; stroke-width: 1.5;" width="58" x="492" y="53.4297"/><text fill="#000000" font-family="sans-serif" font-size="14" lengthAdjust="spacingAndGlyphs" textLength="44" x="499" y="73.4248">nsmgr</text><rect fill="#FEFECE" filter="url(#fuv0nlcebfden)" height="30.2969" style="stroke: #A80036; stroke-width: 1.5;" width="79" x="621.5" y="53.4297"/><text fill="#000000" font-family="sans-serif" font-size="14" lengthAdjust="spacingAndGlyphs" textLength="65" x="628.5" y="73.4248">forwarder</text><polygon fill="#A80036" points="157.5,115.8594,167.5,119.8594,157.5,123.8594,161.5,119.8594" style="stroke: #A80036; stroke-width: 1.0;"/><line style="stroke: #A80036; stroke-width: 1.0;" x1="29.5" x2="163.5" y1="119.8594" y2="119.8594"/><text fill="#000000" font-family="sans-serif" font-size="13" font-weight="bold" lengthAdjust="spacingAndGlyphs" textLength="9" x="36.5" y="114.7935">1</text><text fill="#000000" font-family="sans-serif" font-size="13" lengthAdjust="spacingAndGlyphs" textLength="103" x="49.5" y="114.7935">Service.Request</text><polygon fill="#A80036" points="297.5,144.9922,307.5,148.9922,297.5,152.9922,301.5,148.9922" style="stroke: #A80036; stroke-width: 1.0;"/><line style="stroke: #A80036; stroke-width: 1.0;" x1="169.5" x2="303.5" y1="148.9922" y2="148.9922"/><text fill="#000000" font-family="sans-serif" font-size="13" font-weight="bold" lengthAdjust="spacingAndGlyphs" textLength="9" x="176.5" y="143.9263">2</text><text fill="#000000" font-family="sans-serif" font-size="13" lengthAdjust="spacingAndGlyphs" textLength="103" x="189.5" y="143.9263">Service.Request</text><path d="M259,161.9922 L259,201.9922 L355,201.9922 L355,171.9922 L345,161.9922 L259,161.9922 " fill="#FBFB77" filter="url(#fuv0nlcebfden)" style="stroke: #A80036; stroke-width: 1.0;"/><path d="M345,161.9922 L345,171.9922 L355,171.9922 L345,161.9922 " fill="#FBFB77" style="stroke: #A80036; stroke-width: 1.0;"/><text fill="#000000" font-family="sans-serif" font-size="13" lengthAdjust="spacingAndGlyphs" textLength="42" x="265" y="179.0591">callout</text><text fill="#000000" font-family="sans-serif" font-size="13" lengthAdjust="spacingAndGlyphs" textLength="75" x="265" y="194.1919">mechanism</text><polygon fill="#A80036" points="180.5,228.3906,170.5,232.3906,180.5,236.3906,176.5,232.3906" style="stroke: #A80036; stroke-width: 1.0;"/><line style="stroke: #A80036; stroke-width: 1.0;" x1="174.5" x2="308.5" y1="232.3906" y2="232.3906"/><text fill="#000000" font-family="sans-serif" font-size="13" font-weight="bold" lengthAdjust="spacingAndGlyphs" textLength="9" x="186.5" y="227.3247">3</text><text fill="#000000" font-family="sans-serif" font-size="13" lengthAdjust="spacingAndGlyphs" textLength="103" x="199.5" y="227.3247">Service.Request</text><polygon fill="#A80036" points="511,257.5234,521,261.5234,511,265.5234,515,261.5234" style="stroke: #A80036; stroke-width: 1.0;"/><line style="stroke: #A80036; stroke-width: 1.0;" x1="169.5" x2="517" y1="261.5234" y2="261.5234"/><text fill="#000000" font-family="sans-serif" font-size="13" font-weight="bold" lengthAdjust="spacingAndGlyphs" textLength="9" x="176.5" y="256.4575">4</text><text fill="#000000" font-family="sans-serif" font-size="13" lengthAdjust="spacingAndGlyphs" textLength="103" x="189.5" y="256.4575">Service.Request</text><polygon fill="#A80036" points="651,286.6563,661,290.6563,651,294.6563,655,290.6563" style="stroke: #A80036; stroke-width: 1.0;"/><line style="stroke: #A80036; stroke-width: 1.0;" x1="523" x2="657" y1="290.6563" y2="290.6563"/><text fill="#000000" font-family="sans-serif" font-size="13" font-weight="bold" lengthAdjust="spacingAndGlyphs" textLength="9" x="530" y="285.5903">5</text><text fill="#000000" font-family="sans-serif" font-size="13" lengthAdjust="spacingAndGlyphs" textLength="103" x="543" y="285.5903">Service.Request</text><path d="M613,303.6563 L613,343.6563 L709,343.6563 L709,313.6563 L699,303.6563 L613,303.6563 " fill="#FBFB77" filter="url(#fuv0nlcebfden)" style="stroke: #A80036; stroke-width: 1.0;"/><path d="M699,303.6563 L699,313.6563 L709,313.6563 L699,303.6563 " fill="#FBFB77" style="stroke: #A80036; stroke-width: 1.0;"/><text fill="#000000" font-family="sans-serif" font-size="13" lengthAdjust="spacingAndGlyphs" textLength="42" x="619" y="320.7231">callout</text><text fill="#000000" font-family="sans-serif" font-size="13" lengthAdjust="spacingAndGlyphs" textLength="75" x="619" y="335.856">mechanism</text><polygon fill="#A80036" points="534,370.0547,524,374.0547,534,378.0547,530,374.0547" style="stroke: #A80036; stroke-width: 1.0;"/><line style="stroke: #A80036; stroke-width: 1.0;" x1="528" x2="662" y1="374.0547" y2="374.0547"/><text fill="#000000" font-family="sans-serif" font-size="13" font-weight="bold" lengthAdjust="spacingAndGlyphs" textLength="9" x="540" y="368.9888">6</text><text fill="#000000" font-family="sans-serif" font-size="13" lengthAdjust="spacingAndGlyphs" textLength="103" x="553" y="368.9888">Service.Request</text><polygon fill="#A80036" points="394,399.1875,384,403.1875,394,407.1875,390,403.1875" style="stroke: #A80036; stroke-width: 1.0;"/><line style="stroke: #A80036; stroke-width: 1.0;" x1="388" x2="522" y1="403.1875" y2="403.1875"/><text fill="#000000" font-family="sans-serif" font-size="13" font-weight="bold" lengthAdjust="spacingAndGlyphs" textLength="9" x="400" y="398.1216">7</text><text fill="#000000" font-family="sans-serif" font-size="13" lengthAdjust="spacingAndGlyphs" textLength="103" x="413" y="398.1216">Service.Request</text><path d="M355,416.1875 L355,441.1875 L407,441.1875 L407,426.1875 L397,416.1875 L355,416.1875 " fill="#FBFB77" filter="url(#fuv0nlcebfden)" style="stroke: #A80036; stroke-width: 1.0;"/><path d="M397,416.1875 L397,426.1875 L407,426.1875 L397,416.1875 " fill="#FBFB77" style="stroke: #A80036; stroke-width: 1.0;"/><text fill="#000000" font-family="sans-serif" font-size="13" lengthAdjust="spacingAndGlyphs" textLength="31" x="361" y="433.2544">IPAM</text><polygon fill="#A80036" points="511,467.4531,521,471.4531,511,475.4531,515,471.4531" style="stroke: #A80036; stroke-width: 1.0;"/><line style="stroke: #A80036; stroke-width: 1.0;" x1="383" x2="517" y1="471.4531" y2="471.4531"/><text fill="#000000" font-family="sans-serif" font-size="13" font-weight="bold" lengthAdjust="spacingAndGlyphs" textLength="9" x="390" y="466.3872">8</text><text fill="#000000" font-family="sans-serif" font-size="13" lengthAdjust="spacingAndGlyphs" textLength="72" x="403" y="466.3872">Connection</text><polygon fill="#A80036" points="651,496.5859,661,500.5859,651,504.5859,655,500.5859" style="stroke: #A80036; stroke-width: 1.0;"/><line style="stroke: #A80036; stroke-width: 1.0;" x1="523" x2="657" y1="500.5859" y2="500.5859"/><text fill="#000000" font-family="sans-serif" font-size="13" font-weight="bold" lengthAdjust="spacingAndGlyphs" textLength="9" x="530" y="495.52">9</text><text fill="#000000" font-family="sans-serif" font-size="13" lengthAdjust="spacingAndGlyphs" textLength="72" x="543" y="495.52">Connection</text><path d="M626,513.5859 L626,553.5859 L696,553.5859 L696,523.5859 L686,513.5859 L626,513.5859 " fill="#FBFB77" filter="url(#fuv0nlcebfden)" style="stroke: #A80036; stroke-width: 1.0;"/><path d="M686,513.5859 L686,523.5859 L696,523.5859 L686,513.5859 " fill="#FBFB77" style="stroke: #A80036; stroke-width: 1.0;"/><text fill="#000000" font-family="sans-serif" font-size="13" lengthAdjust="spacingAndGlyphs" textLength="42" x="632" y="530.6528">callout</text><text fill="#000000" font-family="sans-serif" font-size="13" lengthAdjust="spacingAndGlyphs" textLength="49" x="632" y="545.7856">request</text><polygon fill="#A80036" points="394,579.9844,384,583.9844,394,587.9844,390,583.9844" style="stroke: #A80036; stroke-width: 1.0;"/><line style="stroke: #A80036; stroke-width: 1.0; stroke-dasharray: 2.0,2.0;" x1="388" x2="662" y1="583.9844" y2="583.9844"/><text fill="#000000" font-family="sans-serif" font-size="13" font-weight="bold" lengthAdjust="spacingAndGlyphs" textLength="18" x="400" y="578.9185">10</text><text fill="#000000" font-family="sans-serif" font-size="13" lengthAdjust="spacingAndGlyphs" textLength="95" x="422" y="578.9185">Inject-interface</text><polygon fill="#A80036" points="534,609.1172,524,613.1172,534,617.1172,530,613.1172" style="stroke: #A80036; stroke-width: 1.0;"/><line style="stroke: #A80036; stroke-width: 1.0;" x1="528" x2="662" y1="613.1172" y2="613.1172"/><text fill="#000000" font-family="sans-serif" font-size="13" font-weight="bold" lengthAdjust="spacingAndGlyphs" textLength="18" x="540" y="608.0513">11</text><text fill="#000000" font-family="sans-serif" font-size="13" lengthAdjust="spacingAndGlyphs" textLength="72" x="562" y="608.0513">Connection</text><polygon fill="#A80036" points="180.5,638.25,170.5,642.25,180.5,646.25,176.5,642.25" style="stroke: #A80036; stroke-width: 1.0;"/><line style="stroke: #A80036; stroke-width: 1.0;" x1="174.5" x2="522" y1="642.25" y2="642.25"/><text fill="#000000" font-family="sans-serif" font-size="13" font-weight="bold" lengthAdjust="spacingAndGlyphs" textLength="18" x="186.5" y="637.1841">12</text><text fill="#000000" font-family="sans-serif" font-size="13" lengthAdjust="spacingAndGlyphs" textLength="72" x="208.5" y="637.1841">Connection</text><polygon fill="#A80036" points="297.5,667.3828,307.5,671.3828,297.5,675.3828,301.5,671.3828" style="stroke: #A80036; stroke-width: 1.0;"/><line style="stroke: #A80036; stroke-width: 1.0;" x1="169.5" x2="303.5" y1="671.3828" y2="671.3828"/><text fill="#000000" font-family="sans-serif" font-size="13" font-weight="bold" lengthAdjust="spacingAndGlyphs" textLength="18" x="176.5" y="666.3169">13</text><text fill="#000000" font-family="sans-serif" font-size="13" lengthAdjust="spacingAndGlyphs" textLength="72" x="198.5" y="666.3169">Connection</text><path d="M272,684.3828 L272,724.3828 L342,724.3828 L342,694.3828 L332,684.3828 L272,684.3828 " fill="#FBFB77" filter="url(#fuv0nlcebfden)" style="stroke: #A80036; stroke-width: 1.0;"/><path d="M332,684.3828 L332,694.3828 L342,694.3828 L332,684.3828 " fill="#FBFB77" style="stroke: #A80036; stroke-width: 1.0;"/><text fill="#000000" font-family="sans-serif" font-size="13" lengthAdjust="spacingAndGlyphs" textLength="42" x="278" y="701.4497">callout</text><text fill="#000000" font-family="sans-serif" font-size="13" lengthAdjust="spacingAndGlyphs" textLength="49" x="278" y="716.5825">request</text><polygon fill="#A80036" points="40.5,750.7813,30.5,754.7813,40.5,758.7813,36.5,754.7813" style="stroke: #A80036; stroke-width: 1.0;"/><line style="stroke: #A80036; stroke-width: 1.0; stroke-dasharray: 2.0,2.0;" x1="34.5" x2="308.5" y1="754.7813" y2="754.7813"/><text fill="#000000" font-family="sans-serif" font-size="13" font-weight="bold" lengthAdjust="spacingAndGlyphs" textLength="18" x="46.5" y="749.7153">14</text><text fill="#000000" font-family="sans-serif" font-size="13" lengthAdjust="spacingAndGlyphs" textLength="95" x="68.5" y="749.7153">Inject-interface</text><polygon fill="#A80036" points="180.5,779.9141,170.5,783.9141,180.5,787.9141,176.5,783.9141" style="stroke: #A80036; stroke-width: 1.0;"/><line style="stroke: #A80036; stroke-width: 1.0;" x1="174.5" x2="308.5" y1="783.9141" y2="783.9141"/><text fill="#000000" font-family="sans-serif" font-size="13" font-weight="bold" lengthAdjust="spacingAndGlyphs" textLength="18" x="186.5" y="778.8481">15</text><text fill="#000000" font-family="sans-serif" font-size="13" lengthAdjust="spacingAndGlyphs" textLength="72" x="208.5" y="778.8481">Connection</text><polygon fill="#A80036" points="40.5,809.0469,30.5,813.0469,40.5,817.0469,36.5,813.0469" style="stroke: #A80036; stroke-width: 1.0;"/><line style="stroke: #A80036; stroke-width: 1.0;" x1="34.5" x2="168.5" y1="813.0469" y2="813.0469"/><text fill="#000000" font-family="sans-serif" font-size="13" font-weight="bold" lengthAdjust="spacingAndGlyphs" textLength="18" x="46.5" y="807.981">16</text><text fill="#000000" font-family="sans-serif" font-size="13" lengthAdjust="spacingAndGlyphs" textLength="72" x="68.5" y="807.981">Connection</text><!--
@startuml
autonumber
hide footbox
title NSM Remote Xconnect Setup
box "node 1" #LightBlue
participant nsc as NSC order 10
participant "nsmgr" as LN order 20
participant "forwarder" as LF order 30
end box
box "node 2"
participant nse as NSE order 40
participant "nsmgr" as RN order 50
participant "forwarder" as RF order 60
end box

NSC->LN: Service.Request
LN->LF: Service.Request
note over LF: callout\nmechanism
LF->LN: Service.Request
LN->RN: Service.Request
RN->RF: Service.Request
note over RF: callout\nmechanism
RF->RN: Service.Request
RN->NSE: Service.Request
note over NSE: IPAM
NSE->RN: Connection
RN->RF: Connection
note over RF: callout\nrequest
RF- ->NSE: Inject-interface
RF->RN: Connection
RN->LN: Connection

LN->LF: Connection
note over LF: callout\nrequest
LF- ->NSC: Inject-interface
LF->LN: Connection
LN->NSC: Connection

@enduml

PlantUML version 1.2019.00(Sun Jan 13 16:46:42 CET 2019)
(GPL source distribution)
Java Runtime: OpenJDK Runtime Environment
JVM: OpenJDK 64-Bit Server VM
Java Version: 1.8.0_282-8u282-b08-0ubuntu1~18.04-b08
Operating System: Linux
OS Version: 5.4.0-65-generic
Default Encoding: UTF-8
Language: en
Country: US
--></g></svg>