<?xml version="1.0" encoding="UTF-8" standalone="no"?><svg xmlns="http://www.w3.org/2000/svg" xmlns:xlink="http://www.w3.org/1999/xlink" contentScriptType="application/ecmascript" contentStyleType="text/css" height="666px" preserveAspectRatio="none" style="width:651px;height:666px;" version="1.1" viewBox="0 0 651 666" width="651px" zoomAndPan="magnify"><defs><filter height="300%" id="fnpb0yxeu4rjv" width="300%" x="-1" y="-1"><feGaussianBlur result="blurOut" stdDeviation="2.0"/><feColorMatrix in="blurOut" result="blurOut2" type="matrix" values="0 0 0 0 0 0 0 0 0 0 0 0 0 0 0 0 0 0 .4 0"/><feOffset dx="4.0" dy="4.0" in="blurOut2" result="blurOut3"/><feBlend in="SourceGraphic" in2="blurOut3" mode="normal"/></filter></defs><g><text fill="#000000" font-family="sans-serif" font-size="14" font-weight="bold" lengthAdjust="spacingAndGlyphs" textLength="227" x="208.75" y="22.9951">NSM Remote Xconnect Close</text><rect fill="#ADD8E6" height="613.9531" style="stroke: #A80036; stroke-width: 1.0;" width="317" x="4" y="34.2969"/><text fill="#000000" font-family="sans-serif" font-size="13" font-weight="bold" lengthAdjust="spacingAndGlyphs" textLength="51" x="137" y="46.3638">node 1</text><rect fill="#DDDDDD" height="613.9531" style="stroke: #A80036; stroke-width: 1.0;" width="317.5" x="323" y="34.2969"/><text fill="#000000" font-family="sans-serif" font-size="13" font-weight="bold" lengthAdjust="spacingAndGlyphs" textLength="51" x="456.25" y="46.3638">node 2</text><line style="stroke: #A80036; stroke-width: 1.0; stroke-dasharray: 5.0,5.0;" x1="29" x2="29" y1="88.7266" y2="654.25"/><line style="stroke: #A80036; stroke-width: 1.0; stroke-dasharray: 5.0,5.0;" x1="152.5" x2="152.5" y1="88.7266" y2="654.25"/><line style="stroke: #A80036; stroke-width: 1.0; stroke-dasharray: 5.0,5.0;" x1="275" x2="275" y1="88.7266" y2="654.25"/><line style="stroke: #A80036; stroke-width: 1.0; stroke-dasharray: 5.0,5.0;" x1="349" x2="349" y1="88.7266" y2="654.25"/><line style="stroke: #A80036; stroke-width: 1.0; stroke-dasharray: 5.0,5.0;" x1="472" x2="472" y1="88.7266" y2="654.25"/><line style="stroke: #A80036; stroke-width: 1.0; stroke-dasharray: 5.0,5.0;" x1="594.5" x2="594.5" y1="88.7266" y2="654.25"/><rect fill="#FEFECE" filter="url(#fnpb0yxeu4rjv)" height="30.2969" style="stroke: #A80036; stroke-width: 1.5;" width="39" x="8" y="53.4297"/><text fill="#000000" font-family="sans-serif" font-size="14" lengthAdjust="spacingAndGlyphs" textLength="25" x="15" y="73.4248">nsc</text><rect fill="#FEFECE" filter="url(#fnpb0yxeu4rjv)" height="30.2969" style="stroke: #A80036; stroke-width: 1.5;" width="58" x="121.5" y="53.4297"/><text fill="#000000" font-family="sans-serif" font-size="14" lengthAdjust="spacingAndGlyphs" textLength="44" x="128.5" y="73.4248">nsmgr</text><rect fill="#FEFECE" filter="url(#fnpb0yxeu4rjv)" height="30.2969" style="stroke: #A80036; stroke-width: 1.5;" width="79" x="234" y="53.4297"/><text fill="#000000" font-family="sans-serif" font-size="14" lengthAdjust="spacingAndGlyphs" textLength="65" x="241" y="73.4248">forwarder</text><rect fill="#FEFECE" filter="url(#fnpb0yxeu4rjv)" height="30.2969" style="stroke: #A80036; stroke-width: 1.5;" width="40" x="327" y="53.4297"/><text fill="#000000" font-family="sans-serif" font-size="14" lengthAdjust="spacingAndGlyphs" textLength="26" x="334" y="73.4248">nse</text><rect fill="#FEFECE" filter="url(#fnpb0yxeu4rjv)" height="30.2969" style="stroke: #A80036; stroke-width: 1.5;" width="58" x="441" y="53.4297"/><text fill="#000000" font-family="sans-serif" font-size="14" lengthAdjust="spacingAndGlyphs" textLength="44" x="448" y="73.4248">nsmgr</text><rect fill="#FEFECE" filter="url(#fnpb0yxeu4rjv)" height="30.2969" style="stroke: #A80036; stroke-width: 1.5;" width="79" x="553.5" y="53.4297"/><text fill="#000000" font-family="sans-serif" font-size="14" lengthAdjust="spacingAndGlyphs" textLength="65" x="560.5" y="73.4248">forwarder</text><polygon fill="#A80036" points="140.5,115.8594,150.5,119.8594,140.5,123.8594,144.5,119.8594" style="stroke: #A80036; stroke-width: 1.0;"/><line style="stroke: #A80036; stroke-width: 1.0;" x1="29.5" x2="146.5" y1="119.8594" y2="119.8594"/><text fill="#000000" font-family="sans-serif" font-size="13" font-weight="bold" lengthAdjust="spacingAndGlyphs" textLength="9" x="36.5" y="114.7935">1</text><text fill="#000000" font-family="sans-serif" font-size="13" lengthAdjust="spacingAndGlyphs" textLength="86" x="49.5" y="114.7935">Service.Close</text><polygon fill="#A80036" points="263.5,144.9922,273.5,148.9922,263.5,152.9922,267.5,148.9922" style="stroke: #A80036; stroke-width: 1.0;"/><line style="stroke: #A80036; stroke-width: 1.0;" x1="152.5" x2="269.5" y1="148.9922" y2="148.9922"/><text fill="#000000" font-family="sans-serif" font-size="13" font-weight="bold" lengthAdjust="spacingAndGlyphs" textLength="9" x="159.5" y="143.9263">2</text><text fill="#000000" font-family="sans-serif" font-size="13" lengthAdjust="spacingAndGlyphs" textLength="86" x="172.5" y="143.9263">Service.Close</text><polygon fill="#A80036" points="163.5,174.125,153.5,178.125,163.5,182.125,159.5,178.125" style="stroke: #A80036; stroke-width: 1.0;"/><line style="stroke: #A80036; stroke-width: 1.0;" x1="157.5" x2="274.5" y1="178.125" y2="178.125"/><text fill="#000000" font-family="sans-serif" font-size="13" font-weight="bold" lengthAdjust="spacingAndGlyphs" textLength="9" x="169.5" y="173.0591">3</text><text fill="#000000" font-family="sans-serif" font-size="13" lengthAdjust="spacingAndGlyphs" textLength="86" x="182.5" y="173.0591">Service.Close</text><polygon fill="#A80036" points="460,203.2578,470,207.2578,460,211.2578,464,207.2578" style="stroke: #A80036; stroke-width: 1.0;"/><line style="stroke: #A80036; stroke-width: 1.0;" x1="152.5" x2="466" y1="207.2578" y2="207.2578"/><text fill="#000000" font-family="sans-serif" font-size="13" font-weight="bold" lengthAdjust="spacingAndGlyphs" textLength="9" x="159.5" y="202.1919">4</text><text fill="#000000" font-family="sans-serif" font-size="13" lengthAdjust="spacingAndGlyphs" textLength="86" x="172.5" y="202.1919">Service.Close</text><polygon fill="#A80036" points="583,232.3906,593,236.3906,583,240.3906,587,236.3906" style="stroke: #A80036; stroke-width: 1.0;"/><line style="stroke: #A80036; stroke-width: 1.0;" x1="472" x2="589" y1="236.3906" y2="236.3906"/><text fill="#000000" font-family="sans-serif" font-size="13" font-weight="bold" lengthAdjust="spacingAndGlyphs" textLength="9" x="479" y="231.3247">5</text><text fill="#000000" font-family="sans-serif" font-size="13" lengthAdjust="spacingAndGlyphs" textLength="86" x="492" y="231.3247">Service.Close</text><polygon fill="#A80036" points="483,261.5234,473,265.5234,483,269.5234,479,265.5234" style="stroke: #A80036; stroke-width: 1.0;"/><line style="stroke: #A80036; stroke-width: 1.0;" x1="477" x2="594" y1="265.5234" y2="265.5234"/><text fill="#000000" font-family="sans-serif" font-size="13" font-weight="bold" lengthAdjust="spacingAndGlyphs" textLength="9" x="489" y="260.4575">6</text><text fill="#000000" font-family="sans-serif" font-size="13" lengthAdjust="spacingAndGlyphs" textLength="86" x="502" y="260.4575">Service.Close</text><polygon fill="#A80036" points="360,290.6563,350,294.6563,360,298.6563,356,294.6563" style="stroke: #A80036; stroke-width: 1.0;"/><line style="stroke: #A80036; stroke-width: 1.0;" x1="354" x2="471" y1="294.6563" y2="294.6563"/><text fill="#000000" font-family="sans-serif" font-size="13" font-weight="bold" lengthAdjust="spacingAndGlyphs" textLength="9" x="366" y="289.5903">7</text><text fill="#000000" font-family="sans-serif" font-size="13" lengthAdjust="spacingAndGlyphs" textLength="86" x="379" y="289.5903">Service.Close</text><polygon fill="#A80036" points="460,319.7891,470,323.7891,460,327.7891,464,323.7891" style="stroke: #A80036; stroke-width: 1.0;"/><line style="stroke: #A80036; stroke-width: 1.0;" x1="349" x2="466" y1="323.7891" y2="323.7891"/><text fill="#000000" font-family="sans-serif" font-size="13" font-weight="bold" lengthAdjust="spacingAndGlyphs" textLength="9" x="356" y="318.7231">8</text><text fill="#000000" font-family="sans-serif" font-size="13" lengthAdjust="spacingAndGlyphs" textLength="39" x="369" y="318.7231">return</text><polygon fill="#A80036" points="583,348.9219,593,352.9219,583,356.9219,587,352.9219" style="stroke: #A80036; stroke-width: 1.0;"/><line style="stroke: #A80036; stroke-width: 1.0;" x1="472" x2="589" y1="352.9219" y2="352.9219"/><text fill="#000000" font-family="sans-serif" font-size="13" font-weight="bold" lengthAdjust="spacingAndGlyphs" textLength="9" x="479" y="347.856">9</text><text fill="#000000" font-family="sans-serif" font-size="13" lengthAdjust="spacingAndGlyphs" textLength="39" x="492" y="347.856">return</text><path d="M561,365.9219 L561,405.9219 L624,405.9219 L624,375.9219 L614,365.9219 L561,365.9219 " fill="#FBFB77" filter="url(#fnpb0yxeu4rjv)" style="stroke: #A80036; stroke-width: 1.0;"/><path d="M614,365.9219 L614,375.9219 L624,375.9219 L614,365.9219 " fill="#FBFB77" style="stroke: #A80036; stroke-width: 1.0;"/><text fill="#000000" font-family="sans-serif" font-size="13" lengthAdjust="spacingAndGlyphs" textLength="42" x="567" y="382.9888">callout</text><text fill="#000000" font-family="sans-serif" font-size="13" lengthAdjust="spacingAndGlyphs" textLength="33" x="567" y="398.1216">close</text><polygon fill="#A80036" points="360,432.3203,350,436.3203,360,440.3203,356,436.3203" style="stroke: #A80036; stroke-width: 1.0;"/><line style="stroke: #A80036; stroke-width: 1.0; stroke-dasharray: 2.0,2.0;" x1="354" x2="594" y1="436.3203" y2="436.3203"/><text fill="#000000" font-family="sans-serif" font-size="13" font-weight="bold" lengthAdjust="spacingAndGlyphs" textLength="18" x="366" y="431.2544">10</text><text fill="#000000" font-family="sans-serif" font-size="13" lengthAdjust="spacingAndGlyphs" textLength="103" x="388" y="431.2544">Delete-interface</text><polygon fill="#A80036" points="483,461.4531,473,465.4531,483,469.4531,479,465.4531" style="stroke: #A80036; stroke-width: 1.0;"/><line style="stroke: #A80036; stroke-width: 1.0;" x1="477" x2="594" y1="465.4531" y2="465.4531"/><text fill="#000000" font-family="sans-serif" font-size="13" font-weight="bold" lengthAdjust="spacingAndGlyphs" textLength="18" x="489" y="460.3872">11</text><text fill="#000000" font-family="sans-serif" font-size="13" lengthAdjust="spacingAndGlyphs" textLength="39" x="511" y="460.3872">return</text><polygon fill="#A80036" points="163.5,490.5859,153.5,494.5859,163.5,498.5859,159.5,494.5859" style="stroke: #A80036; stroke-width: 1.0;"/><line style="stroke: #A80036; stroke-width: 1.0;" x1="157.5" x2="471" y1="494.5859" y2="494.5859"/><text fill="#000000" font-family="sans-serif" font-size="13" font-weight="bold" lengthAdjust="spacingAndGlyphs" textLength="18" x="169.5" y="489.52">12</text><text fill="#000000" font-family="sans-serif" font-size="13" lengthAdjust="spacingAndGlyphs" textLength="39" x="191.5" y="489.52">return</text><polygon fill="#A80036" points="263.5,519.7188,273.5,523.7188,263.5,527.7188,267.5,523.7188" style="stroke: #A80036; stroke-width: 1.0;"/><line style="stroke: #A80036; stroke-width: 1.0;" x1="152.5" x2="269.5" y1="523.7188" y2="523.7188"/><text fill="#000000" font-family="sans-serif" font-size="13" font-weight="bold" lengthAdjust="spacingAndGlyphs" textLength="18" x="159.5" y="518.6528">13</text><text fill="#000000" font-family="sans-serif" font-size="13" lengthAdjust="spacingAndGlyphs" textLength="39" x="181.5" y="518.6528">return</text><path d="M242,536.7188 L242,576.7188 L305,576.7188 L305,546.7188 L295,536.7188 L242,536.7188 " fill="#FBFB77" filter="url(#fnpb0yxeu4rjv)" style="stroke: #A80036; stroke-width: 1.0;"/><path d="M295,536.7188 L295,546.7188 L305,546.7188 L295,536.7188 " fill="#FBFB77" style="stroke: #A80036; stroke-width: 1.0;"/><text fill="#000000" font-family="sans-serif" font-size="13" lengthAdjust="spacingAndGlyphs" textLength="42" x="248" y="553.7856">callout</text><text fill="#000000" font-family="sans-serif" font-size="13" lengthAdjust="spacingAndGlyphs" textLength="33" x="248" y="568.9185">close</text><polygon fill="#A80036" points="163.5,603.1172,153.5,607.1172,163.5,611.1172,159.5,607.1172" style="stroke: #A80036; stroke-width: 1.0;"/><line style="stroke: #A80036; stroke-width: 1.0;" x1="157.5" x2="274.5" y1="607.1172" y2="607.1172"/><text fill="#000000" font-family="sans-serif" font-size="13" font-weight="bold" lengthAdjust="spacingAndGlyphs" textLength="18" x="169.5" y="602.0513">14</text><text fill="#000000" font-family="sans-serif" font-size="13" lengthAdjust="spacingAndGlyphs" textLength="39" x="191.5" y="602.0513">return</text><polygon fill="#A80036" points="40.5,632.25,30.5,636.25,40.5,640.25,36.5,636.25" style="stroke: #A80036; stroke-width: 1.0;"/><line style="stroke: #A80036; stroke-width: 1.0;" x1="34.5" x2="151.5" y1="636.25" y2="636.25"/><text fill="#000000" font-family="sans-serif" font-size="13" font-weight="bold" lengthAdjust="spacingAndGlyphs" textLength="18" x="46.5" y="631.1841">15</text><text fill="#000000" font-family="sans-serif" font-size="13" lengthAdjust="spacingAndGlyphs" textLength="39" x="68.5" y="631.1841">return</text><!--
@startuml
autonumber
hide footbox
title NSM Remote Xconnect Close
box "node 1" #LightBlue
participant nsc as NSC order 10
participant "nsmgr" as LN order 20
participant "forwarder" as LF order 30
end box
box "node 2"
participant nse as NSE order 40
participant "nsmgr" as RN order 50
participant "forwarder" as RF order 60
end box

NSC->LN: Service.Close
LN->LF: Service.Close
LF->LN: Service.Close
LN->RN: Service.Close
RN->RF: Service.Close
RF->RN: Service.Close
RN->NSE: Service.Close
NSE->RN: return
RN->RF: return
note over RF: callout\nclose
RF- ->NSE: Delete-interface
RF->RN: return
RN->LN: return

LN->LF: return
note over LF: callout\nclose
LF->LN: return
LN->NSC: return

@enduml

PlantUML version 1.2019.00(Sun Jan 13 16:46:42 CET 2019)
(GPL source distribution)
Java Runtime: OpenJDK Runtime Environment
JVM: OpenJDK 64-Bit Server VM
Java Version: 1.8.0_282-8u282-b08-0ubuntu1~18.04-b08
Operating System: Linux
OS Version: 5.4.0-66-generic
Default Encoding: UTF-8
Language: en
Country: US
--></g></svg>